<svg width="32" height="32" viewBox="0 0 32 32" fill="none" xmlns="http://www.w3.org/2000/svg">
<g clip-path="url(#clip0_2101_16320)">
<rect width="32" height="32" rx="16" fill="#F8F4E7"/>
<path fill-rule="evenodd" clip-rule="evenodd" d="M27.2911 31.7372C26.7045 28.9489 24.6245 26.7852 21.8269 25.7073C21.2892 25.4021 20.7679 24.0925 20.0453 23.8527C19.9294 23.8143 20.1123 24.1202 20.0453 24.1385C19.8063 24.2037 19.5385 24.2105 19.2746 23.9751C18.8029 23.5545 18.655 22.3256 18.3682 21.7701C16.8559 18.8409 13.0801 19.987 12.5742 23.2253C12.2215 23.4559 11.7229 23.6592 11.3389 23.8451C10.9436 24.0365 10.5958 24.5002 10.1884 24.6659C9.82485 24.8138 9.22586 24.7091 8.85954 24.838C7.17472 25.4311 5.74773 26.1794 4.62898 27.6956C4.39325 28.0154 4.12752 28.4085 3.913 28.7316C2.80705 30.0092 2.03888 31.4411 1.33139 32.9774C-0.648017 37.4868 -1.18641 42.4796 -1.66945 47.3381C-1.65847 48.1882 -2.22061 50.5454 -1.38919 50.9529C-1.43888 51.0046 -1.42088 51.1085 -1.32868 51.1076C0.779476 51.0862 2.88273 51.2755 4.95818 51.6436C5.95955 51.8212 6.95555 52.0648 7.97555 52.1048C10.0929 52.0901 12.2027 51.7341 14.3172 52.071C16.8593 52.071 19.9487 51.9967 22.7767 51.8876C25.4198 51.7856 28.077 52.0159 30.6873 51.5649C30.8939 51.5321 30.9948 51.2792 30.9515 51.098C30.6453 49.9782 30.4949 48.8256 30.3231 47.6795C30.3573 46.9444 30.2961 46.1769 30.0251 45.4922C29.317 40.8698 28.409 36.2775 27.2911 31.7372Z" fill="white"/>
<path fill-rule="evenodd" clip-rule="evenodd" d="M26.4381 37.8131C26.3823 38.0849 26.3041 38.3567 26.2002 38.6141C26.1 38.8625 25.9492 39.0851 25.8453 39.3306C25.8313 39.3637 25.8085 39.3887 25.781 39.4078L25.7896 39.4746L25.7975 39.5413C25.8493 39.992 25.9076 40.4414 25.9581 40.892L25.9826 41.1174C26.0819 42.0582 26.2386 42.9944 26.3603 43.9328C26.4795 44.8516 26.6008 45.7704 26.7304 46.688C26.8644 47.6339 27.0009 48.5786 27.1602 49.5207C27.2274 49.9186 27.2976 50.3162 27.3707 50.7134L27.4272 51.0175C28.0086 51.1578 28.1675 51.9711 27.5755 52.2713C27.3068 52.4069 26.9616 52.3743 26.7402 52.1611C26.51 51.9388 26.5005 51.5381 26.4471 51.2371L26.3956 50.9574C26.0106 48.8542 25.6765 46.7267 25.5203 44.5938C25.4802 44.0431 25.4464 43.4918 25.4244 42.9402C25.4035 42.4213 25.4135 41.9025 25.4055 41.3836L25.4028 41.242C25.3906 40.6887 25.4007 40.1362 25.4151 39.5829C25.4168 39.5155 25.4197 39.4481 25.4231 39.3802C25.4037 39.3573 25.3897 39.3302 25.3839 39.3039L25.3762 39.2691C25.3572 39.1797 25.3788 39.0749 25.4473 39.0109C25.4768 38.634 25.5157 38.2575 25.5262 37.8809C25.5271 37.85 25.5714 37.8509 25.574 37.8809C25.5989 38.2015 25.6488 38.5229 25.6986 38.8439C26.0193 38.5852 26.2564 38.1587 26.3962 37.8017C26.4064 37.7758 26.444 37.7851 26.4381 37.8131ZM18.8502 22.8279C18.9034 23.0721 19.0086 23.2914 19.1497 23.4953C19.217 23.5928 19.2934 23.6836 19.3851 23.7595C19.4637 23.8243 19.5533 23.8667 19.6369 23.9231C19.7586 23.904 19.8858 23.9503 19.9711 24.0401L19.9577 23.9087C19.9534 23.8663 20.0236 23.8578 20.0316 23.8989C20.4013 25.7697 20.7384 27.6417 21.0302 29.526L21.1582 30.3582L21.2785 31.1394C21.4784 32.4411 21.6717 33.7424 21.8172 35.0537C22.0112 36.8036 22.1742 38.5581 22.2934 40.3151C22.413 42.0846 22.4865 43.8552 22.5389 45.628C22.552 46.0749 22.566 46.5213 22.5795 46.9682L22.6697 46.4339C22.7598 45.8995 22.8481 45.3647 22.9238 44.8279C23.1955 42.9067 23.4127 40.9719 23.5188 39.0343C23.616 37.2611 23.5834 35.4527 23.1339 33.7252C23.0206 33.2906 22.882 32.8628 22.7147 32.446C22.5524 32.0407 22.331 31.665 22.1565 31.2656C21.9537 30.8009 21.8928 30.3625 21.9972 29.8622C22.0885 29.4263 22.2487 29.0163 22.2773 28.5677C22.331 27.7349 22.061 26.9284 21.6795 26.1996C21.5789 26.0075 21.4728 25.818 21.3621 25.6301C21.0271 25.0624 20.6493 24.5154 20.2572 23.991C20.2361 23.963 20.2809 23.932 20.3037 23.9549C20.6611 24.3094 21.052 24.6579 21.3736 25.0451C21.5299 25.2333 21.6824 25.4253 21.8269 25.6225C23.4123 25.8884 24.7746 26.8793 25.7058 28.1878C26.7626 29.6726 27.2971 31.4598 27.6926 33.2198C28.1325 35.1758 28.5034 37.1496 28.8985 39.1152C29.3075 41.1492 29.7144 43.1831 30.1259 45.2167C30.3304 46.2262 30.535 47.2358 30.739 48.2458C30.8426 48.7571 30.9512 49.2672 31.0648 49.7769C31.1232 50.038 31.1857 50.2988 31.2398 50.5608C31.3006 50.8564 31.244 51.0454 31.0446 51.2626C30.971 51.3431 30.8548 51.3419 30.7635 51.299L30.735 51.2856L30.7074 51.2722C30.5945 51.2165 30.506 51.1588 30.4357 51.0348C30.3583 50.8988 30.3461 50.7478 30.3195 50.5965C30.2704 50.3178 30.2219 50.0393 30.1729 49.7603C30.0996 49.3431 30.02 48.9271 29.939 48.5111L29.5323 46.4325C29.4239 45.8783 29.3153 45.3241 29.2061 44.7702C28.8161 42.7892 28.4257 40.8087 28.0353 38.8282C27.6604 36.9265 27.3288 35.0117 26.902 33.121L26.8778 33.0145L26.8531 32.9082C26.4715 31.2783 25.9384 29.7016 24.971 28.3205C24.2265 27.2584 23.1926 26.3099 21.9748 25.8298C22.0606 25.9537 22.143 26.08 22.2216 26.2089C22.7151 27.0179 23.0755 27.9783 22.991 28.9417C22.9496 29.4123 22.7713 29.8749 22.7882 30.3494C22.8038 30.7708 23.0637 31.141 23.2433 31.5077C23.651 32.3388 23.946 33.222 24.1361 34.1281C24.5177 35.9475 24.5164 37.8195 24.3849 39.6664C24.2421 41.6741 23.9709 43.6814 23.662 45.6695C23.5036 46.6892 23.2927 47.7005 23.1313 48.7185C23.0515 49.2205 22.9428 49.7213 22.8478 50.2208L22.8025 50.4594C22.7771 50.5919 22.7508 50.7239 22.7204 50.8545L22.7016 50.9326V50.9466C22.7008 51.0429 22.6745 51.1226 22.6323 51.1862C22.5744 51.3723 22.5026 51.5539 22.4071 51.7281C22.3581 51.8172 22.2871 51.8672 22.2097 51.8854C22.132 52.0639 21.9558 52.2013 21.7454 52.2005L18.9782 52.1899C17.3709 52.1835 15.7635 52.1729 14.1562 52.164C13.7506 52.1619 13.3454 52.1543 12.9402 52.1437C12.5603 52.1331 12.1961 52.0873 11.8205 52.0398C11.3962 51.9863 11.1664 51.6849 11.2298 51.2596C11.2437 51.1659 11.2589 51.0726 11.2733 50.9793C11.1888 51.0073 11.0882 50.9942 11.0202 50.9276L10.9564 50.865C10.868 50.7772 10.7889 50.691 10.7329 50.5739C10.675 50.4536 10.628 50.3264 10.5769 50.2034C10.4666 49.9388 10.3594 49.6734 10.2549 49.4067C10.0458 48.8733 9.83668 48.3378 9.64227 47.7988C9.25739 46.7316 8.91678 45.6483 8.62063 44.5527C8.09246 42.598 7.71044 40.6056 7.4696 38.5954L7.41201 38.1163L7.39527 37.9748C7.30394 37.1957 7.22708 36.4044 7.2634 35.627C7.28584 35.1402 7.36101 34.6496 7.54232 34.195C7.7096 33.7757 7.96777 33.417 8.21326 33.0422L8.24135 32.9989L8.2696 32.9546C8.48429 32.6142 8.65512 32.2583 8.66368 31.8448C8.67236 31.4253 8.55055 31.0169 8.41436 30.6242L8.38041 30.5273L8.35763 30.4632C8.0679 29.6514 7.73818 28.8511 7.84692 27.9677C8.00753 26.6669 8.7934 25.6183 9.78217 24.8097C8.90284 24.9844 8.03246 25.3295 7.26429 25.7671C6.35706 26.2844 5.5403 26.9671 4.83594 27.7375C3.50495 29.1935 2.55467 30.9404 1.77682 32.7441C0.962556 34.6318 0.358753 36.6098 -0.0962749 38.6136C-0.55388 40.6289 -0.860219 42.6765 -1.06942 44.732C-1.17374 45.7552 -1.25575 46.7808 -1.32374 47.8069C-1.35839 48.3327 -1.38458 48.8593 -1.42515 49.3842C-1.46571 49.9087 -1.48392 50.4412 -1.61153 50.9518C-1.67111 51.1896 -2.07294 51.2138 -2.11599 50.9518C-2.21155 50.3666 -2.18484 49.7614 -2.15817 49.1688L-2.15575 49.115C-2.12951 48.5248 -2.09529 47.935 -2.05477 47.3452C-1.97191 46.1397 -1.86125 44.936 -1.71674 43.7361C-1.21012 39.524 -0.275853 35.334 1.55668 31.4891C2.4195 29.6782 3.52696 27.9185 5.06753 26.6109C5.80101 25.9888 6.62791 25.4923 7.51903 25.1328C8.31598 24.811 9.12555 24.6588 9.97231 24.6592C10.397 24.3327 10.8529 24.0482 11.3083 23.8052C11.3358 23.7904 11.3645 23.826 11.3418 23.8489C11.3299 23.8604 11.3185 23.8722 11.3067 23.8833C11.3582 23.8867 11.4114 23.9108 11.4592 23.9613C11.6265 24.1372 11.7677 24.3573 11.894 24.5858C12.0862 24.8267 12.2696 25.0755 12.4615 25.3138C12.7686 25.6954 13.083 26.0715 13.4012 26.4447C13.9356 27.0717 14.4874 27.6869 15.0628 28.2774L15.1589 28.3756C15.4572 28.6788 15.7594 29.0417 16.1121 29.2817L16.131 29.2942C16.2798 29.3915 16.3853 29.4092 16.5123 29.2639C16.6277 29.1316 16.7237 28.9781 16.8224 28.8323L16.8453 28.7988C17.3494 28.064 17.8167 27.302 18.2396 26.5176C18.4324 26.1606 18.6158 25.7985 18.7898 25.4323L18.8418 25.3224C18.9364 25.1205 19.0391 24.9225 19.1172 24.7147C19.1354 24.666 19.1531 24.6172 19.1704 24.5689C18.9042 24.3938 18.6981 24.0147 18.6233 23.7179C18.5456 23.4097 18.5849 23.0933 18.7234 22.8114C18.7496 22.7584 18.8375 22.7715 18.8502 22.8279ZM5.71826 35.3543C5.68143 36.5263 5.65908 37.6995 5.60411 38.8706L5.58514 39.2704C5.67087 39.3663 5.72115 39.4769 5.68101 39.6287C5.66542 39.6868 5.61932 39.7394 5.56186 39.7589L5.54394 40.1306C5.4624 41.8031 5.3668 43.4721 5.19214 45.1404C4.97369 47.2282 4.72101 49.3125 4.4688 51.3966C4.43288 51.6917 4.22833 51.9257 3.91017 51.8825C3.58824 51.8388 3.45767 51.5576 3.49993 51.2647C3.66598 50.1152 3.82566 48.9648 3.96556 47.8116L4.12485 46.4977C4.32459 44.8552 4.52903 43.213 4.76457 41.5757C4.86302 40.8914 4.96528 40.2075 5.06791 39.5235L5.03204 39.4769C4.88538 39.2857 4.73369 39.0987 4.58369 38.9105C4.29556 38.5475 4.01119 38.1875 3.74711 37.8076C3.73397 37.7885 3.76063 37.7605 3.7796 37.775C4.14974 38.0493 4.50007 38.3427 4.85246 38.6408L5.16091 38.9028C5.33838 37.7211 5.51415 36.539 5.67087 35.3543C5.67472 35.3246 5.71908 35.3225 5.71826 35.3543ZM11.0426 24.1385C10.8199 24.3492 10.5922 24.5553 10.3678 24.7648L10.2856 24.8419L10.2038 24.9193C9.80937 25.2946 9.43152 25.6853 9.11668 26.1339C8.53865 26.9577 8.19429 27.9622 8.43467 28.9679C8.63415 29.8011 9.09175 30.5563 9.21471 31.4102C9.27636 31.838 9.2464 32.268 9.08579 32.672C8.92185 33.0842 8.65988 33.4374 8.42453 33.8092C7.91326 34.6174 7.84354 35.5044 7.89429 36.4406C7.94753 37.4184 8.05946 38.3965 8.19767 39.3654C8.47734 41.3285 8.89903 43.2713 9.4572 45.1739C9.73654 46.1266 10.0665 47.059 10.3949 47.9952C10.5583 48.4612 10.7489 48.9161 10.9454 49.3689C11.0489 49.6073 11.155 49.8442 11.2627 50.0808C11.223 49.7467 11.223 49.4037 11.2035 49.0717C11.1757 48.596 11.1402 48.1211 11.1076 47.6458C11.0413 46.6812 10.9822 45.7157 10.9294 44.7503C10.7422 41.3073 10.6044 37.8615 10.6145 34.413C10.6196 32.6886 10.6547 30.9642 10.7287 29.2414C10.7633 28.4301 10.8304 27.6196 10.8911 26.8095L10.904 26.6359C10.9577 25.9088 11.0219 25.1799 11.1321 24.4591C11.0995 24.3852 11.0712 24.3103 11.0501 24.2336L11.0426 24.2047L11.0481 24.2055C11.043 24.183 11.0413 24.1606 11.0426 24.1385ZM12.9685 21.1756C12.9731 21.1556 13.0014 21.1573 13.0065 21.1756C13.132 21.5996 13.0876 22.066 12.9795 22.4925C12.9212 22.7236 12.8384 22.9479 12.7382 23.1642L12.7032 23.2398C12.6174 23.424 12.5208 23.6137 12.3537 23.7285C12.284 23.7764 12.1593 23.7794 12.0896 23.7285L12.0541 23.7014C12.0482 23.6968 12.0424 23.6922 12.0368 23.6874C11.9718 23.6327 11.9396 23.5118 11.9696 23.4321C12.0469 23.2265 12.2223 23.0755 12.3435 22.8924C12.4509 22.7296 12.546 22.5578 12.625 22.3793C12.7952 21.9931 12.8717 21.583 12.9685 21.1756Z" fill="black"/>
<path fill-rule="evenodd" clip-rule="evenodd" d="M16.7162 7.09146C23.0759 7.2935 23.4594 10.3248 23.4594 15.4084C23.4594 20.492 20.1603 23.6954 18.9455 24.2548C17.7307 24.8141 14.532 27.2168 11.6453 26.1096C8.75868 25.0024 9.59462 20.3246 9.59462 18.3147C9.59462 16.3048 10.3565 6.88942 16.7162 7.09146Z" fill="white"/>
<path fill-rule="evenodd" clip-rule="evenodd" d="M19.2962 22.5853C18.1283 23.2395 16.791 23.2649 15.5347 22.8532C14.7814 22.6069 14.0906 22.2261 13.444 21.7707C12.8816 21.3743 12.3797 20.9346 11.8823 20.4677C11.4729 19.5617 11.1083 18.6573 10.9376 17.6715C10.7846 16.7866 10.7643 15.8677 10.9418 14.9845C12.2542 13.9012 13.5586 12.809 14.8612 11.7134C15.5246 11.1553 16.1897 10.6004 16.8628 10.0542C17.2046 9.77691 17.5431 9.49537 17.8836 9.21679C17.9398 9.171 17.9956 9.12521 18.0518 9.07942C18.7549 9.59586 19.5087 10.0386 20.2068 10.5634C20.5722 10.8386 20.9276 11.1316 21.266 11.4398C21.4435 11.6014 21.6168 11.768 21.7858 11.9389C21.9404 12.095 22.0895 12.3188 22.3089 12.3778C22.3389 12.3858 22.3671 12.3875 22.3938 12.3837C22.687 14.9599 22.8953 17.7418 21.6391 20.0815C21.0911 21.1021 20.3141 22.0145 19.2962 22.5853ZM11.6986 23.5321C11.5378 23.3843 11.7774 23.145 11.9376 23.2922C12.9435 24.2168 14.2585 24.7069 15.5868 24.9337C15.8011 24.9704 15.7097 25.2972 15.4969 25.2608C14.1101 25.024 12.7471 24.4958 11.6986 23.5321ZM10.4916 24.9507C10.2996 24.8473 10.4705 24.5546 10.6622 24.6578C11.4458 25.0796 12.3054 25.2987 13.1772 25.4467C13.3917 25.483 13.3002 25.8098 13.0874 25.7737C12.1859 25.6208 11.3014 25.3865 10.4916 24.9507ZM13.6811 10.6606C14.3314 10.075 15.0302 9.5178 15.7684 9.04762C16.5154 8.57188 17.3314 8.28738 18.2132 8.28059C18.1515 8.3302 18.0928 8.38532 18.0332 8.43658C17.8668 8.57952 17.7007 8.72325 17.5346 8.86657C17.2025 9.15362 16.8695 9.4402 16.5416 9.73196C15.896 10.3069 15.2483 10.8789 14.6039 11.4551C13.3654 12.5626 12.1537 13.6942 10.968 14.8586C10.9744 14.8302 10.9811 14.8018 10.9878 14.7734C11.3804 13.1282 12.4481 11.771 13.6811 10.6606ZM18.7785 8.35225C18.7828 8.33953 18.7858 8.32719 18.7875 8.31536C20.4797 8.53669 21.8931 9.78619 22.3604 11.4314C22.3198 11.4882 22.2974 11.5556 22.3059 11.6272C22.3101 11.6633 22.3143 11.6998 22.3185 11.7358C22.2607 11.6782 22.2011 11.6243 22.1504 11.573C21.9818 11.4017 21.809 11.235 21.6315 11.0726C21.2685 10.7407 20.8917 10.4303 20.4945 10.1407C19.8037 9.63698 19.0557 9.17397 18.2322 8.93229C18.2863 8.88777 18.3404 8.84325 18.3949 8.79915C18.5576 8.66639 18.7084 8.55704 18.7785 8.35225ZM21.8124 6.59305C20.7734 5.45375 19.3346 4.61931 17.8194 4.32929C16.3726 4.05199 14.8747 4.23473 13.5079 4.77364C10.6477 5.9015 8.39094 8.38155 7.33418 11.2554C6.71812 12.9298 6.51615 14.7653 6.70126 16.5377C6.88545 18.3019 7.41488 20.1239 8.37826 21.6249C8.46657 21.7623 8.56334 21.8941 8.66474 22.0218C8.61953 22.5399 8.44714 23.0478 8.17587 23.4897C8.16129 23.5133 8.14591 23.5366 8.1307 23.5598C7.85293 23.7686 7.5648 23.9645 7.28352 24.1667C7.03976 24.3419 6.79849 24.5216 6.56926 24.7157C6.35288 24.8989 6.1016 25.1029 5.95511 25.3502C5.83507 25.5527 5.78605 25.8281 5.94991 26.0213C6.14736 26.254 6.48193 26.172 6.74939 26.172C6.77229 26.172 6.79515 26.1725 6.81801 26.1727C6.89834 26.2234 6.98107 26.2692 7.06122 26.3118C7.87122 26.7426 8.68418 27.1688 9.49798 27.5928C11.1189 28.4378 12.733 29.3168 14.3871 30.0948C15.1537 30.4556 15.9742 30.7711 16.8328 30.7698C17.6382 30.7686 18.3662 30.4476 18.9949 29.9596C19.7115 29.4036 20.3107 28.6977 20.8921 28.0058C21.1245 27.7288 21.3522 27.4486 21.5757 27.1645C22.005 27.0208 22.4309 26.9788 22.8138 27.2561C23.1209 27.4787 23.5257 27.176 23.5329 26.8418C23.5354 26.7232 23.5304 26.6061 23.5177 26.4908C23.4408 25.7784 23.0935 25.1339 22.7022 24.5361C22.4884 24.2092 22.2632 23.8882 22.0367 23.5702C21.9835 23.4952 21.9311 23.4201 21.8804 23.3438C22.7901 21.9997 23.5118 20.5093 23.9554 18.9519C24.4215 17.3132 24.58 15.6138 24.4761 13.9156C24.3163 11.3131 23.6048 8.55874 21.8124 6.59305Z" fill="black"/>
<path fill-rule="evenodd" clip-rule="evenodd" d="M18.6304 20.734C18.3464 20.6177 18.093 20.4237 17.9077 20.176C17.8433 20.0898 17.8266 19.9989 17.8401 19.9157C17.8553 19.8221 17.9104 19.7374 17.9856 19.6805C18.0611 19.6234 18.1555 19.5953 18.2467 19.6096C18.326 19.6221 18.4049 19.6657 18.4673 19.756L18.4804 19.7741C18.5906 19.9236 18.7341 20.0463 18.8977 20.1254C19.0553 20.2016 19.2316 20.2372 19.4141 20.2165C19.7615 20.1771 20.001 19.9886 20.2556 19.7325C20.2872 19.7001 20.3187 19.6668 20.3505 19.6329C20.3705 19.6022 20.3983 19.5825 20.4292 19.5721C20.4635 19.5606 20.5022 19.5613 20.5378 19.5737C20.572 19.5857 20.6026 19.6084 20.6232 19.6387C20.6427 19.6674 20.6537 19.7029 20.6502 19.7438C20.6269 20.0092 20.4886 20.246 20.2922 20.432C20.074 20.6386 19.7849 20.7815 19.5127 20.8316C19.2128 20.8868 18.9072 20.8472 18.6304 20.734ZM19.6542 16.6398C19.9732 16.8344 20.4594 17.2882 20.1161 17.7707C19.7121 18.1961 19.1304 17.7084 18.8437 17.4878C18.5779 17.3168 18.2793 17.7565 18.5259 17.9561C20.5973 19.4951 21.4379 16.6907 19.8155 16.411C19.6369 16.3801 19.5706 16.5796 19.6542 16.6398ZM15.9421 14.8496C15.9774 14.4105 16.6438 14.3108 16.7101 14.7453C16.7695 15.1345 16.6996 15.4921 16.5249 15.8425C16.358 16.1773 15.9384 16.0211 15.9066 15.7163C15.8641 15.3076 15.9202 15.1228 15.9421 14.8496ZM21.0153 14.6552C21.1082 14.5331 21.2423 14.4497 21.4031 14.4968C21.9052 14.6441 21.7572 15.3595 21.5809 15.7078C21.485 15.8969 21.1753 15.9448 21.0353 15.7783C20.8071 15.5068 20.6978 14.9645 20.9879 14.6971C20.9958 14.6832 21.0045 14.6693 21.0153 14.6552ZM16.5178 12.9282L16.5972 12.9143C16.8426 12.8717 17.1477 12.8307 17.3213 13.0287C17.4133 13.1337 17.445 13.3288 17.3213 13.4293C17.1036 13.6061 16.8629 13.5376 16.602 13.5526C16.3871 13.565 16.1804 13.6007 15.9733 13.6601C15.519 13.7904 15.1489 14.0282 14.7608 14.2894C14.7099 14.3237 14.658 14.2583 14.6822 14.2106C14.9062 13.7703 15.3403 13.4087 15.7751 13.1882C16.0072 13.0706 16.2611 12.973 16.5178 12.9282ZM20.5575 12.731L20.6182 12.7435C21.2789 12.882 22.1374 13.1589 22.4502 13.8101C22.4622 13.9022 22.4496 13.922 22.4393 13.9349L22.4359 13.9391C22.4275 13.9502 22.4207 13.9653 22.381 13.9779C22.3699 13.9752 22.3588 13.9724 22.3475 13.9695C22.2041 13.9318 22.0906 13.8798 21.9808 13.8259L21.8616 13.767C21.7235 13.699 21.584 13.6335 21.4363 13.5851C21.121 13.4819 20.7967 13.4092 20.4673 13.3704C20.396 13.362 20.3272 13.3378 20.273 13.2964C20.2215 13.2571 20.1822 13.2026 20.1643 13.1302C20.141 13.0366 20.1477 12.9657 20.1978 12.8812C20.2355 12.8177 20.2893 12.7737 20.3512 12.7485C20.4143 12.7227 20.4861 12.7166 20.5575 12.731Z" fill="black"/>
</g>
<defs>
<clipPath id="clip0_2101_16320">
<rect width="32" height="32" rx="16" fill="white"/>
</clipPath>
</defs>
</svg>
