<svg width="164" height="48" viewBox="0 0 164 48" fill="none" xmlns="http://www.w3.org/2000/svg">
<path d="M13.2125 48C10.7743 48 8.54475 47.3896 6.52389 46.1689C4.52499 44.9482 2.93245 43.3134 1.74629 41.2643C0.582098 39.1935 0 36.8937 0 34.3651L0.0658979 13.4714C0.0658979 10.9864 0.637013 8.74114 1.77924 6.73569C2.92147 4.70845 4.49204 3.08447 6.49094 1.86376C8.51181 0.621253 10.7523 0 13.2125 0C15.7166 0 17.9462 0.599455 19.9012 1.79837C21.8781 2.99728 23.4487 4.62125 24.6129 6.6703C25.799 8.69755 26.3921 10.9646 26.3921 13.4714V16.545C26.3921 16.7193 26.3042 16.8065 26.1285 16.8065H18.5502C18.3745 16.8065 18.2867 16.7193 18.2867 16.545V13.4714C18.2867 11.9891 17.8034 10.7139 16.8369 9.64578C15.8704 8.57766 14.6623 8.0436 13.2125 8.0436C11.609 8.0436 10.3789 8.58856 9.52224 9.67847C8.66557 10.7684 8.23723 12.0327 8.23723 13.4714V34.3651C8.23723 36 8.72048 37.3406 9.68699 38.3869C10.6535 39.4114 11.8287 39.9237 13.2125 39.9237C14.6623 39.9237 15.8704 39.3569 16.8369 38.2234C17.8034 37.0681 18.2867 35.782 18.2867 34.3651V31.2589C18.2867 31.0845 18.3745 30.9973 18.5502 30.9973H26.1944C26.3701 30.9973 26.458 31.0845 26.458 31.2589V34.3651C26.458 36.8719 25.8649 39.1608 24.6787 41.2316C23.4706 43.2807 21.8781 44.9264 19.9012 46.1689C17.9242 47.3896 15.6947 48 13.2125 48Z" fill="black"/>
<path d="M41.1558 48C38.7616 48 36.554 47.3896 34.5331 46.1689C32.5342 44.9482 30.9197 43.3243 29.6896 41.297C28.4815 39.248 27.8774 37.0027 27.8774 34.5613L27.9433 13.3406C27.9433 10.8556 28.5474 8.62125 29.7555 6.6376C30.9417 4.63215 32.5452 3.02997 34.5661 1.83106C36.5869 0.610354 38.7835 0 41.1558 0C43.616 0 45.8236 0.599455 47.7786 1.79837C49.7555 2.99728 51.3371 4.61035 52.5232 6.6376C53.7314 8.64305 54.3354 10.8774 54.3354 13.3406L54.4013 34.5613C54.4013 37.0027 53.8082 39.2371 52.6221 41.2643C51.4139 43.3134 49.8104 44.9482 47.8115 46.1689C45.8126 47.3896 43.5941 48 41.1558 48ZM41.1558 39.9237C42.5177 39.9237 43.7039 39.3787 44.7143 38.2888C45.7248 37.1771 46.23 35.9346 46.23 34.5613L46.1641 13.3406C46.1641 11.8583 45.6918 10.6049 44.7473 9.58038C43.8027 8.55586 42.6056 8.0436 41.1558 8.0436C39.772 8.0436 38.5858 8.54496 37.5974 9.54768C36.6089 10.5504 36.1147 11.8147 36.1147 13.3406V34.5613C36.1147 36.0218 36.6089 37.2861 37.5974 38.3542C38.5858 39.4005 39.772 39.9237 41.1558 39.9237Z" fill="black"/>
<path d="M64.1568 47.3461H57.4023C57.0508 47.3461 56.8751 47.1935 56.8751 46.8883L56.8092 1.2752C56.8092 0.926431 56.985 0.752044 57.3364 0.752044H63.432L74.8323 27.139L74.5028 1.2752C74.5028 0.926431 74.7005 0.752044 75.0959 0.752044H81.7845C82.0481 0.752044 82.1799 0.926431 82.1799 1.2752L82.2458 46.9537C82.2458 47.2153 82.136 47.3461 81.9163 47.3461H75.9855L64.2886 22.6921L64.7829 46.8229C64.7829 47.1717 64.5742 47.3461 64.1568 47.3461Z" fill="black"/>
<path d="M93.3193 47.3461H85.741C85.5214 47.3461 85.4115 47.2371 85.4115 47.0191L85.5433 1.01362C85.5433 0.839237 85.6312 0.752044 85.8069 0.752044H107.421C107.641 0.752044 107.751 0.839237 107.751 1.01362V8.56676C107.751 8.74114 107.663 8.82834 107.487 8.82834H93.6488V19.2262H107.487C107.663 19.2262 107.751 19.3351 107.751 19.5531L107.817 27.139C107.817 27.3134 107.707 27.4005 107.487 27.4005H93.6488V47.0191C93.6488 47.2371 93.5389 47.3461 93.3193 47.3461Z" fill="black"/>
<path d="M108.841 47.0191L117.21 1.01362C117.254 0.839237 117.364 0.752044 117.539 0.752044H127.325C127.501 0.752044 127.611 0.839237 127.655 1.01362L135.694 47.0191C135.716 47.2371 135.628 47.3461 135.431 47.3461H127.951C127.732 47.3461 127.611 47.2371 127.589 47.0191L126.864 42.1144H117.671L116.946 47.0191C116.924 47.2371 116.814 47.3461 116.617 47.3461H109.104C108.929 47.3461 108.841 47.2371 108.841 47.0191ZM122.053 16.1526L119.022 34.9537H125.513L122.745 16.1526L122.35 13.6676L122.053 16.1526Z" fill="black"/>
<path d="M149.568 47.3461H137.476C137.3 47.3461 137.213 47.2371 137.213 47.0191L137.344 1.01362C137.344 0.839237 137.432 0.752044 137.608 0.752044H150.59C153.116 0.752044 155.411 1.3624 157.476 2.58311C159.497 3.80381 161.09 5.42779 162.254 7.45504C163.418 9.46049 164 11.6403 164 13.9946C164 15.9128 163.561 17.7003 162.682 19.3569C161.803 21.0136 160.76 22.3542 159.552 23.3787C160.848 24.6649 161.858 26.158 162.583 27.8583C163.308 29.5586 163.671 31.3461 163.671 33.2207C163.671 35.8147 163.044 38.1798 161.792 40.3161C160.518 42.4523 158.816 44.1635 156.685 45.4496C154.555 46.7139 152.182 47.3461 149.568 47.3461ZM150.59 8.69755H145.45V19.2262H150.59C152.149 19.2262 153.412 18.6812 154.379 17.5913C155.345 16.4796 155.829 15.2807 155.829 13.9946C155.829 12.5777 155.312 11.346 154.28 10.2997C153.248 9.23161 152.018 8.69755 150.59 8.69755ZM149.568 27.3351H145.45L145.384 39.1717H149.568C151.194 39.1717 152.589 38.5831 153.753 37.406C154.917 36.2289 155.499 34.8338 155.499 33.2207C155.499 31.6076 154.917 30.2234 153.753 29.0681C152.589 27.9128 151.194 27.3351 149.568 27.3351Z" fill="black"/>
</svg>
