<svg width="52" height="52" viewBox="0 0 52 52" fill="none" xmlns="http://www.w3.org/2000/svg">
<g clip-path="url(#clip0_2101_16436)">
<rect x="2" y="2" width="48" height="48" rx="16" fill="#F5F4F3"/>
<path fill-rule="evenodd" clip-rule="evenodd" d="M43.7214 43.1713C42.9394 39.4392 40.166 36.5432 36.436 35.1005C35.719 34.692 35.024 32.9392 34.0604 32.6182C33.9059 32.5667 34.1497 32.9762 34.0604 33.0007C33.7417 33.0879 33.3846 33.097 33.0328 32.782C32.404 32.219 32.2067 30.5742 31.8243 29.8307C29.808 25.91 24.7735 27.4441 24.099 31.7784C23.6287 32.0871 22.9639 32.3591 22.4519 32.608C21.9248 32.8642 21.4611 33.4848 20.9179 33.7067C20.4332 33.9046 19.6345 33.7644 19.1461 33.937C16.8997 34.7308 14.997 35.7324 13.5053 37.7618C13.191 38.1898 12.8367 38.716 12.5507 39.1484C11.0761 40.8584 10.0519 42.775 9.10855 44.8313C6.46934 50.8668 5.75148 57.5495 5.10742 64.0525C5.12207 65.1903 4.37255 68.3453 5.48111 68.8908C5.41486 68.96 5.43886 69.099 5.56179 69.0978C8.37266 69.0692 11.177 69.3226 13.9443 69.8152C15.2794 70.053 16.6074 70.379 17.9674 70.4325C20.7906 70.4129 23.6036 69.9363 26.423 70.3873C29.8124 70.3873 33.9316 70.2878 37.7023 70.1418C41.2264 70.0053 44.7694 70.3135 48.2498 69.7099C48.5253 69.6659 48.6598 69.3275 48.6021 69.0849C48.1937 67.5861 47.9933 66.0435 47.7642 64.5094C47.8098 63.5255 47.7282 62.4983 47.3668 61.5818C46.4227 55.3949 45.212 49.2483 43.7214 43.1713Z" fill="white"/>
<path fill-rule="evenodd" clip-rule="evenodd" d="M42.5841 51.3035C42.5098 51.6673 42.4055 52.031 42.2669 52.3756C42.1334 52.7081 41.9323 53.006 41.7938 53.3346C41.7752 53.3789 41.7448 53.4124 41.7081 53.4379L41.7195 53.5273L41.73 53.6167C41.7991 54.2199 41.8769 54.8214 41.9442 55.4245L41.9769 55.7262C42.1092 56.9854 42.3182 58.2385 42.4805 59.4944C42.6393 60.7242 42.8011 61.954 42.974 63.1821C43.1526 64.4483 43.3346 65.7127 43.5469 66.9737C43.6366 67.5063 43.7302 68.0384 43.8277 68.5701L43.903 68.977C44.6782 69.1649 44.89 70.2534 44.1007 70.6552C43.7425 70.8368 43.2822 70.7931 42.9869 70.5077C42.6801 70.2102 42.6674 69.6738 42.5962 69.271L42.5276 68.8966C42.0143 66.0815 41.5687 63.234 41.3605 60.3792C41.3069 59.642 41.2619 58.9043 41.2326 58.1659C41.2047 57.4714 41.218 56.7769 41.2074 56.0824L41.2038 55.893C41.1876 55.1524 41.201 54.4129 41.2202 53.6723C41.2224 53.5821 41.2264 53.4918 41.2309 53.401C41.205 53.3704 41.1864 53.3341 41.1786 53.2989L41.1684 53.2523C41.143 53.1326 41.1717 52.9924 41.2631 52.9067C41.3024 52.4022 41.3543 51.8982 41.3684 51.3943C41.3695 51.3529 41.4286 51.3541 41.4321 51.3943C41.4653 51.8233 41.5317 52.2535 41.5982 52.6831C42.0258 52.3369 42.3419 51.766 42.5284 51.2882C42.5419 51.2535 42.5921 51.266 42.5841 51.3035ZM32.4669 31.2463C32.5379 31.5732 32.6782 31.8667 32.8664 32.1397C32.956 32.2702 33.0579 32.3916 33.1802 32.4932C33.285 32.58 33.4045 32.6368 33.516 32.7123C33.6782 32.6867 33.8478 32.7486 33.9616 32.8689L33.9436 32.693C33.9379 32.6362 34.0315 32.6249 34.0422 32.6799C34.5351 35.1839 34.9846 37.6894 35.3737 40.2115L35.5443 41.3253L35.7048 42.3709C35.9712 44.1133 36.229 45.855 36.423 47.6101C36.6816 49.9523 36.899 52.3006 37.0579 54.6524C37.2174 57.0206 37.3154 59.3905 37.3853 61.7634C37.4027 62.3615 37.4214 62.9591 37.4393 63.5572L37.5597 62.8421C37.6798 62.1269 37.7975 61.4109 37.8985 60.6925C38.2607 58.1211 38.5504 55.5314 38.6917 52.938C38.8214 50.5646 38.778 48.1442 38.1785 45.832C38.0275 45.2503 37.8427 44.6777 37.6197 44.1199C37.4033 43.5774 37.1081 43.0745 36.8754 42.5399C36.605 41.918 36.5238 41.3311 36.663 40.6615C36.7847 40.0781 36.9983 39.5293 37.0365 38.9289C37.1081 37.8143 36.7481 36.7348 36.2394 35.7593C36.1052 35.5022 35.9638 35.2485 35.8162 34.9971C35.3695 34.2372 34.8658 33.5051 34.343 32.8031C34.3149 32.7656 34.3745 32.7242 34.405 32.7549C34.8816 33.2293 35.4027 33.6958 35.8315 34.2139C36.0399 34.4659 36.2433 34.7229 36.4359 34.9869C38.5498 35.3427 40.3661 36.669 41.6078 38.4204C43.0168 40.4078 43.7295 42.7999 44.2569 45.1556C44.8433 47.7736 45.338 50.4153 45.8647 53.0463C46.41 55.7687 46.9526 58.4911 47.5013 61.2129C47.774 62.5641 48.0467 63.9154 48.3188 65.2672C48.4568 65.9516 48.6016 66.6343 48.7531 67.3165C48.8309 67.6661 48.9143 68.0151 48.9864 68.3658C49.0675 68.7614 48.992 69.0145 48.7261 69.3051C48.6281 69.4129 48.4731 69.4112 48.3514 69.3539L48.3134 69.3358L48.2766 69.318C48.1261 69.2434 48.008 69.1662 47.9143 69.0003C47.8112 68.8181 47.7948 68.6161 47.7594 68.4135C47.694 68.0406 47.6292 67.6678 47.5639 67.2944C47.4662 66.7359 47.3601 66.1791 47.252 65.6224L46.7098 62.8403C46.5652 62.0985 46.4205 61.3567 46.2748 60.6153C45.7548 57.9639 45.2343 55.313 44.7138 52.6621C44.214 50.1168 43.7717 47.5539 43.2028 45.0233L43.1704 44.8808L43.1375 44.7384C42.6287 42.5569 41.9179 40.4466 40.6281 38.598C39.6354 37.1764 38.2569 35.9068 36.6331 35.2644C36.7476 35.4301 36.8574 35.5992 36.9622 35.7718C37.6202 36.8546 38.1007 38.14 37.9881 39.4294C37.9329 40.0593 37.6952 40.6785 37.7176 41.3135C37.7385 41.8777 38.085 42.3731 38.3245 42.8639C38.8681 43.9763 39.2614 45.1585 39.5149 46.3712C40.0236 48.8064 40.0219 51.312 39.8467 53.7841C39.6562 56.4713 39.2946 59.1579 38.8828 61.8189C38.6715 63.1838 38.3904 64.5374 38.1751 65.9C38.0687 66.5719 37.9238 67.2422 37.7971 67.9107L37.7367 68.2301C37.7028 68.4073 37.6677 68.584 37.6272 68.7588L37.6022 68.8635V68.8822C37.6011 69.0111 37.5661 69.1178 37.5098 69.2029C37.4326 69.452 37.3369 69.695 37.2095 69.9282C37.1442 70.0474 37.0495 70.1143 36.9464 70.1388C36.8427 70.3777 36.6078 70.5615 36.3273 70.5604L32.6376 70.5462C30.4945 70.5377 28.3514 70.5235 26.2083 70.5116C25.6676 70.5088 25.1273 70.4986 24.587 70.4844C24.0805 70.4702 23.5949 70.4089 23.094 70.3453C22.5283 70.2738 22.2219 69.8703 22.3064 69.3011C22.325 69.1756 22.3452 69.0508 22.3645 68.926C22.2518 68.9634 22.1177 68.9458 22.027 68.8567L21.942 68.7729C21.8241 68.6554 21.7186 68.5401 21.6439 68.3834C21.5667 68.2223 21.5041 68.052 21.436 67.8874C21.2889 67.5333 21.1459 67.178 21.0067 66.8211C20.7278 66.1071 20.449 65.3904 20.1898 64.669C19.6766 63.2406 19.2224 61.7906 18.8276 60.3242C18.1233 57.7079 17.614 55.0412 17.2929 52.3506L17.2161 51.7093L17.1938 51.5199C17.072 50.477 16.9695 49.418 17.0179 48.3774C17.0478 47.7258 17.1481 47.0693 17.3898 46.4608C17.6129 45.8996 17.9571 45.4195 18.2844 44.9178L18.3219 44.8599L18.3595 44.8006C18.6458 44.3449 18.8736 43.8685 18.885 43.3152C18.8965 42.7536 18.7341 42.2071 18.5525 41.6814L18.5073 41.5517L18.4769 41.4659C18.0906 40.3793 17.651 39.3081 17.796 38.1258C18.0101 36.3847 19.0579 34.9812 20.3763 33.899C19.2038 34.1328 18.0433 34.5947 17.0191 35.1804C15.8095 35.8728 14.7205 36.7865 13.7813 37.8177C12.0067 39.7664 10.7396 42.1047 9.70249 44.5189C8.6168 47.0454 7.81173 49.6929 7.20503 52.375C6.59488 55.0724 6.18643 57.8129 5.9075 60.5642C5.76841 61.9336 5.65905 63.3064 5.56841 64.6798C5.52221 65.3835 5.48728 66.0884 5.43319 66.791C5.37911 67.493 5.35483 68.2057 5.18469 68.8891C5.10525 69.2075 4.56948 69.2398 4.51207 68.8891C4.38466 68.1058 4.42027 67.2958 4.45583 66.5027L4.45905 66.4306C4.49404 65.6406 4.53967 64.8512 4.5937 64.0618C4.70418 62.4484 4.85173 60.8372 5.04441 59.2311C5.7199 53.5934 6.96559 47.9853 9.40897 42.839C10.5594 40.4152 12.036 38.06 14.0901 36.3098C15.0681 35.4772 16.1706 34.8126 17.3588 34.3314C18.4214 33.9007 19.5008 33.6969 20.6298 33.6975C21.196 33.2605 21.8039 32.8797 22.4112 32.5545C22.4478 32.5347 22.4861 32.5823 22.4557 32.613C22.44 32.6283 22.4247 32.6441 22.409 32.6589C22.4777 32.6635 22.5486 32.6958 22.6123 32.7634C22.8354 32.9988 23.0236 33.2934 23.192 33.5993C23.4483 33.9217 23.6929 34.2547 23.9487 34.5737C24.3582 35.0844 24.7774 35.5878 25.2016 36.0872C25.9142 36.9266 26.6499 37.75 27.4171 38.5403L27.5453 38.6717C27.943 39.0775 28.3459 39.5633 28.8162 39.8845L28.8413 39.9013C29.0398 40.0316 29.1805 40.0552 29.3498 39.8607C29.5036 39.6836 29.6317 39.4782 29.7633 39.283L29.7938 39.2381C30.4659 38.2546 31.089 37.2348 31.6529 36.1849C31.91 35.7071 32.1545 35.2224 32.3865 34.7323L32.4557 34.5851C32.5819 34.315 32.7188 34.0499 32.823 33.7718C32.8472 33.7066 32.8709 33.6413 32.894 33.5766C32.5391 33.3422 32.2642 32.8349 32.1645 32.4376C32.0608 32.025 32.1132 31.6016 32.2979 31.2243C32.3329 31.1533 32.45 31.1709 32.4669 31.2463ZM14.9577 48.0124C14.9086 49.5811 14.8788 51.1514 14.8055 52.7189L14.7802 53.254C14.8946 53.3823 14.9616 53.5304 14.9081 53.7336C14.8873 53.8114 14.8258 53.8817 14.7492 53.9078L14.7253 54.4054C14.6166 56.6439 14.4891 58.8778 14.2562 61.1107C13.965 63.9052 13.6281 66.695 13.2918 69.4844C13.2439 69.8794 12.9712 70.1926 12.5469 70.1348C12.1177 70.0763 11.9436 69.7 12 69.3079C12.2214 67.7694 12.4343 66.2297 12.6208 64.6861L12.8332 62.9274C13.0995 60.729 13.3721 58.531 13.6862 56.3396C13.8174 55.4237 13.9538 54.5083 14.0906 53.5928L14.0428 53.5304C13.8472 53.2745 13.645 53.0242 13.445 52.7722C13.0608 52.2865 12.6817 51.8046 12.3295 51.2961C12.312 51.2705 12.3476 51.2331 12.3729 51.2524C12.8664 51.6196 13.3335 52.0123 13.8033 52.4113L14.2146 52.762C14.4512 51.1803 14.6856 49.5981 14.8946 48.0124C14.8997 47.9728 14.9588 47.9699 14.9577 48.0124ZM22.0569 33.0006C21.7599 33.2826 21.4563 33.5585 21.1571 33.8388L21.0475 33.942L20.9384 34.0456C20.4126 34.548 19.9088 35.0709 19.489 35.6713C18.7183 36.774 18.2591 38.1184 18.5796 39.4646C18.8456 40.5797 19.4557 41.5905 19.6197 42.7335C19.7019 43.3061 19.6619 43.8816 19.4478 44.4223C19.2292 44.974 18.8799 45.4468 18.5661 45.9445C17.8844 47.0261 17.7914 48.2134 17.8591 49.4665C17.9301 50.7752 18.0793 52.0844 18.2636 53.3812C18.6365 56.0088 19.1988 58.6091 19.943 61.1556C20.3154 62.4308 20.7554 63.6787 21.1932 64.9318C21.4112 65.5555 21.6653 66.1645 21.9272 66.7705C22.0652 67.0895 22.2067 67.4067 22.3504 67.7234C22.2974 67.2762 22.2974 66.8171 22.2714 66.3727C22.2343 65.736 22.1869 65.1004 22.1436 64.4642C22.0552 63.1731 21.9763 61.8808 21.9059 60.5886C21.6563 55.9804 21.4726 51.3682 21.4861 46.7526C21.4929 44.4445 21.5397 42.1364 21.6383 39.8306C21.6845 38.7447 21.774 37.6599 21.8549 36.5756L21.8721 36.3433C21.9436 35.37 22.0292 34.3944 22.1762 33.4296C22.1327 33.3307 22.0949 33.2305 22.0669 33.1278L22.0569 33.0891L22.0642 33.0903C22.0574 33.0601 22.0552 33.0301 22.0569 33.0006ZM24.6248 29.0348C24.6309 29.0081 24.6686 29.0104 24.6754 29.0348C24.8427 29.6023 24.7836 30.2266 24.6394 30.7975C24.5617 31.1068 24.4512 31.407 24.3177 31.6964L24.271 31.7977C24.1566 32.0442 24.0278 32.2982 23.805 32.4518C23.7121 32.5159 23.5458 32.5199 23.4529 32.4518L23.4055 32.4156C23.3977 32.4094 23.39 32.4032 23.3824 32.3967C23.2957 32.3235 23.2529 32.1618 23.2929 32.0551C23.396 31.7799 23.6298 31.5778 23.7915 31.3327C23.9346 31.1147 24.0614 30.8849 24.1667 30.646C24.3937 30.129 24.4957 29.5802 24.6248 29.0348Z" fill="black"/>
<path fill-rule="evenodd" clip-rule="evenodd" d="M29.6215 10.184C38.1011 10.4544 38.6126 14.5117 38.6126 21.3159C38.6126 28.1201 34.2137 32.4077 32.594 33.1564C30.9743 33.9051 26.7093 37.1209 22.8604 35.639C19.0116 34.157 20.1261 27.896 20.1261 25.2059C20.1261 22.5157 21.1419 9.91355 29.6215 10.184Z" fill="white"/>
<path fill-rule="evenodd" clip-rule="evenodd" d="M33.0615 30.9219C31.5043 31.7976 29.7213 31.8316 28.0463 31.2806C27.0418 30.9509 26.1207 30.4412 25.2587 29.8317C24.5089 29.3011 23.8396 28.7126 23.1765 28.0877C22.6305 26.875 22.1444 25.6644 21.9167 24.345C21.7128 23.1606 21.6858 21.9308 21.9224 20.7486C23.6723 19.2986 25.4114 17.8367 27.1483 16.3703C28.0328 15.6234 28.9196 14.8806 29.817 14.1496C30.2728 13.7784 30.7241 13.4016 31.1782 13.0287C31.2531 12.9674 31.3275 12.9061 31.4024 12.8449C32.3398 13.5361 33.3449 14.1286 34.2757 14.8312C34.7629 15.1995 35.2367 15.5916 35.688 16.0042C35.9246 16.2204 36.1557 16.4435 36.381 16.6722C36.5872 16.8811 36.786 17.1807 37.0785 17.2596C37.1185 17.2703 37.1562 17.2726 37.1917 17.2675C37.5827 20.7157 37.8604 24.4392 36.1855 27.5707C35.4548 28.9367 34.4188 30.158 33.0615 30.9219ZM22.9314 32.1892C22.717 31.9913 23.0366 31.6711 23.2501 31.8681C24.5913 33.1056 26.3446 33.7616 28.1157 34.0653C28.4014 34.1143 28.2796 34.5517 27.9958 34.503C26.1468 34.186 24.3294 33.4791 22.9314 32.1892ZM21.3221 34.088C21.0661 33.9496 21.294 33.5578 21.5495 33.6959C22.5944 34.2604 23.7405 34.5537 24.903 34.7518C25.1889 34.8005 25.0669 35.2379 24.7832 35.1896C23.5812 34.9848 22.4018 34.6712 21.3221 34.088ZM25.5748 14.9612C26.4418 14.1774 27.3736 13.4316 28.3579 12.8023C29.3539 12.1655 30.4418 11.7847 31.6176 11.7757C31.5353 11.8421 31.457 11.9158 31.3776 11.9844C31.1557 12.1758 30.9342 12.3681 30.7128 12.56C30.27 12.9442 29.826 13.3278 29.3889 13.7183C28.528 14.4878 27.6643 15.2534 26.8052 16.0246C25.1539 17.507 23.5382 19.0216 21.9573 20.5801C21.9658 20.5421 21.9748 20.504 21.9838 20.4661C22.5072 18.2641 23.9308 16.4474 25.5748 14.9612ZM32.3714 11.8716C32.377 11.8545 32.381 11.838 32.3833 11.8222C34.6396 12.1184 36.5241 13.7908 37.1472 15.9929C37.0931 16.0689 37.0632 16.1591 37.0745 16.255C37.0801 16.3033 37.0858 16.3521 37.0914 16.4003C37.0142 16.3232 36.9348 16.2511 36.8672 16.1824C36.6424 15.9531 36.412 15.73 36.1753 15.5127C35.6914 15.0684 35.1889 14.653 34.6593 14.2653C33.7382 13.5911 32.741 12.9714 31.6429 12.6479C31.7151 12.5883 31.7872 12.5288 31.8599 12.4697C32.0767 12.292 32.2779 12.1457 32.3714 11.8716ZM36.4165 9.51695C35.0312 7.99204 33.1128 6.87517 31.0926 6.48699C29.1635 6.11584 27.1663 6.36043 25.3438 7.08174C21.5303 8.59133 18.5212 11.9108 17.1122 15.7573C16.2908 17.9985 16.0215 20.4552 16.2683 22.8274C16.5139 25.1888 17.2198 27.6275 18.5043 29.6365C18.6221 29.8204 18.7511 29.9968 18.8863 30.1677C18.826 30.8612 18.5962 31.5411 18.2345 32.1324C18.2151 32.1641 18.1945 32.1952 18.1743 32.2263C17.8039 32.5057 17.4197 32.7679 17.0447 33.0386C16.7197 33.2731 16.398 33.5136 16.0923 33.7734C15.8038 34.0186 15.4688 34.2917 15.2735 34.6227C15.1134 34.8938 15.0481 35.2624 15.2665 35.5209C15.5298 35.8324 15.9759 35.7226 16.3325 35.7226C16.3631 35.7226 16.3935 35.7232 16.424 35.7236C16.5311 35.7914 16.6414 35.8527 16.7483 35.9097C17.8283 36.4864 18.9122 37.0567 19.9973 37.6242C22.1585 38.7553 24.3106 39.9318 26.5162 40.9732C27.5382 41.4561 28.6323 41.8783 29.777 41.8766C30.8509 41.8749 31.8215 41.4453 32.6598 40.7921C33.6153 40.048 34.4143 39.1032 35.1894 38.1771C35.4993 37.8064 35.8029 37.4313 36.101 37.0511C36.6734 36.8587 37.2412 36.8025 37.7517 37.1736C38.1612 37.4716 38.701 37.0664 38.7105 36.6191C38.7139 36.4603 38.7072 36.3036 38.6903 36.1493C38.5878 35.1958 38.1246 34.3332 37.6029 33.5331C37.3179 33.0955 37.0176 32.6658 36.7156 32.2402C36.6446 32.1398 36.5748 32.0393 36.5072 31.9371C37.7201 30.1382 38.6824 28.1433 39.2739 26.0588C39.8954 23.8654 40.1067 21.5908 39.9681 19.3179C39.7551 15.8345 38.8064 12.1479 36.4165 9.51695Z" fill="black"/>
<path fill-rule="evenodd" clip-rule="evenodd" d="M32.1739 28.444C31.7952 28.2884 31.4573 28.0288 31.2102 27.6971C31.1243 27.5819 31.1021 27.4601 31.1201 27.3488C31.1403 27.2236 31.2139 27.1101 31.3141 27.034C31.4147 26.9576 31.5406 26.92 31.6622 26.9392C31.7679 26.9558 31.8732 27.0141 31.9564 27.1351L31.9738 27.1592C32.1207 27.3594 32.3121 27.5236 32.5302 27.6295C32.7404 27.7315 32.9754 27.7791 33.2187 27.7514C33.682 27.6987 34.0014 27.4463 34.3408 27.1036C34.3828 27.0603 34.4249 27.0156 34.4673 26.9703C34.494 26.9292 34.531 26.9028 34.5722 26.8889C34.6179 26.8735 34.6696 26.8744 34.717 26.891C34.7626 26.9071 34.8035 26.9375 34.8308 26.978C34.8569 27.0165 34.8716 27.064 34.8668 27.1187C34.8358 27.4739 34.6514 27.791 34.3895 28.0399C34.0987 28.3163 33.7132 28.5076 33.3502 28.5747C32.9503 28.6486 32.5429 28.5956 32.1739 28.444ZM33.5388 22.9641C33.9643 23.2246 34.6125 23.832 34.1548 24.4778C33.6161 25.0472 32.8405 24.3944 32.4583 24.0991C32.1039 23.8703 31.7057 24.4588 32.0345 24.726C34.7964 26.7858 35.9172 23.0322 33.754 22.6578C33.5158 22.6166 33.4274 22.8835 33.5388 22.9641ZM28.5895 20.568C28.6365 19.9803 29.5251 19.8468 29.6135 20.4284C29.6926 20.9494 29.5995 21.428 29.3665 21.897C29.1439 22.3451 28.5844 22.1361 28.5421 21.728C28.4854 21.1811 28.5602 20.9336 28.5895 20.568ZM35.3536 20.3078C35.4775 20.1444 35.6564 20.0328 35.8707 20.0959C36.5403 20.293 36.3429 21.2505 36.1078 21.7166C35.98 21.9697 35.567 22.0339 35.3803 21.8111C35.0761 21.4476 34.9304 20.7218 35.3172 20.3638C35.3277 20.3453 35.3393 20.3267 35.3536 20.3078ZM29.3571 17.9963L29.4628 17.9776C29.79 17.9206 30.1969 17.8659 30.4283 18.1308C30.5511 18.2714 30.5933 18.5325 30.4283 18.667C30.1381 18.9037 29.8172 18.812 29.4693 18.832C29.1827 18.8486 28.9072 18.8964 28.6311 18.9759C28.0253 19.1503 27.5318 19.4687 27.0144 19.8182C26.9465 19.8641 26.8772 19.7766 26.9096 19.7127C27.2083 19.1234 27.787 18.6394 28.3668 18.3443C28.6762 18.1869 29.0148 18.0562 29.3571 17.9963ZM34.7433 17.7323L34.8242 17.749C35.7052 17.9345 36.8498 18.3051 37.267 19.1767C37.2829 19.3 37.2661 19.3264 37.2524 19.3437L37.2479 19.3494C37.2366 19.3642 37.2276 19.3845 37.1746 19.4012C37.1599 19.3977 37.145 19.394 37.13 19.39C36.9387 19.3395 36.7874 19.27 36.641 19.1978L36.4822 19.119C36.2979 19.028 36.112 18.9403 35.915 18.8756C35.4946 18.7374 35.0622 18.6401 34.6231 18.5882C34.5279 18.5769 34.4363 18.5446 34.364 18.4891C34.2953 18.4365 34.2429 18.3636 34.219 18.2667C34.188 18.1413 34.1969 18.0464 34.2637 17.9333C34.3139 17.8484 34.3857 17.7895 34.4682 17.7557C34.5523 17.7213 34.6481 17.7131 34.7433 17.7323Z" fill="black"/>
</g>
<rect x="1" y="1" width="50" height="50" rx="17" stroke="#F5F4F3" stroke-width="2"/>
<defs>
<clipPath id="clip0_2101_16436">
<rect x="2" y="2" width="48" height="48" rx="16" fill="white"/>
</clipPath>
</defs>
</svg>
