<svg width="10" height="10" viewBox="0 0 10 10" fill="none" xmlns="http://www.w3.org/2000/svg">
<path d="M8.99998 5.66667H5.66665V9C5.66665 9.36667 5.36665 9.66667 4.99998 9.66667C4.63331 9.66667 4.33331 9.36667 4.33331 9V5.66667H0.99998C0.633313 5.66667 0.333313 5.36667 0.333313 5C0.333313 4.63333 0.633313 4.33333 0.99998 4.33333H4.33331V0.999999C4.33331 0.633332 4.63331 0.333332 4.99998 0.333332C5.36665 0.333332 5.66665 0.633332 5.66665 0.999999V4.33333H8.99998C9.36665 4.33333 9.66665 4.63333 9.66665 5C9.66665 5.36667 9.36665 5.66667 8.99998 5.66667Z" fill="white"/>
</svg>
