<svg width="14" height="14" viewBox="0 0 14 14" fill="none" xmlns="http://www.w3.org/2000/svg">
<path d="M6.99331 0.333374C3.31331 0.333374 0.333313 3.32004 0.333313 7.00004C0.333313 10.68 3.31331 13.6667 6.99331 13.6667C10.68 13.6667 13.6666 10.68 13.6666 7.00004C13.6666 3.32004 10.68 0.333374 6.99331 0.333374ZM4.66665 4.33337C5.21998 4.33337 5.66665 4.78004 5.66665 5.33337C5.66665 5.88671 5.21998 6.33337 4.66665 6.33337C4.11331 6.33337 3.66665 5.88671 3.66665 5.33337C3.66665 4.78004 4.11331 4.33337 4.66665 4.33337ZM10.14 8.81337C9.53331 10.1134 8.35998 11 6.99998 11C5.63998 11 4.46665 10.1134 3.85998 8.81337C3.75331 8.59337 3.91331 8.33337 4.15998 8.33337H9.83998C10.0866 8.33337 10.2466 8.59337 10.14 8.81337ZM9.33331 6.33337C8.77998 6.33337 8.33331 5.88671 8.33331 5.33337C8.33331 4.78004 8.77998 4.33337 9.33331 4.33337C9.88665 4.33337 10.3333 4.78004 10.3333 5.33337C10.3333 5.88671 9.88665 6.33337 9.33331 6.33337Z" fill="#4E4F51"/>
</svg>
